<svg xmlns="http://www.w3.org/2000/svg" version="1.1" xmlns:xlink="http://www.w3.org/1999/xlink" xmlns:svgjs="http://svgjs.dev/svgjs" width="1500" height="935" viewBox="0 0 1500 935"><g transform="matrix(1,0,0,1,-0.9090909090909918,0.3785425101214628)"><svg viewBox="0 0 396 247" data-background-color="#60777f" preserveAspectRatio="xMidYMid meet" height="935" width="1500" xmlns="http://www.w3.org/2000/svg" xmlns:xlink="http://www.w3.org/1999/xlink"><g id="tight-bounds" transform="matrix(1,0,0,1,0.2400000000000091,-0.09999999999999432)"><svg viewBox="0 0 395.52 247.2" height="247.2" width="395.52"><g><svg></svg></g><g><svg viewBox="0 0 395.52 247.2" height="247.2" width="395.52"><g transform="matrix(1,0,0,1,127.21015,47.215199999999996)"><svg viewBox="0 0 141.09969999999998 152.7696" height="152.7696" width="141.09969999999998"><g><svg viewBox="0 0 141.09969999999998 152.7696" height="152.7696" width="141.09969999999998"><g><svg viewBox="0 0 141.09969999999998 152.7696" height="152.7696" width="141.09969999999998"><g><svg viewBox="0 0 141.09969999999998 152.7696" height="152.7696" width="141.09969999999998"><g id="textblocktransform"><svg viewBox="0 0 141.09969999999998 152.7696" height="152.7696" width="141.09969999999998" id="textblock"><g><svg viewBox="0 0 141.09969999999998 152.7696" height="152.7696" width="141.09969999999998"><g transform="matrix(1,0,0,1,0,0)"><svg width="141.09969999999998" viewBox="2.4 -36 33.25 36" height="152.7696" data-palette-color="#ffffff"><path d="M11.6-33L11.6-3 19.35-3Q22.05-3 23.98-3.8 25.9-4.6 27.15-6.3L27.15-6.3Q28.55-8.05 29.23-10.9 29.9-13.75 29.9-17.7L29.9-17.7Q29.9-25.5 27.15-29.3L27.15-29.3Q25.85-31.2 23.8-32.1 21.75-33 18.85-33L18.85-33 11.6-33ZM2.4-33.85L2.4-36 19.2-36Q26.65-36 30.8-31.8L30.8-31.8Q33.15-29.4 34.4-25.9 35.65-22.4 35.65-18.4L35.65-18.4Q35.65-14.2 34.33-10.53 33-6.85 30.65-4.35L30.65-4.35Q26.5 0 18.75 0L18.75 0 2.4 0 2.4-2.15 6.6-3.2 6.6-32.8 2.4-33.85Z" opacity="1" transform="matrix(1,0,0,1,0,0)" fill="#ffffff" class="wordmark-text-0" data-fill-palette-color="primary" id="text-0"></path></svg></g></svg></g></svg></g></svg></g></svg></g></svg></g></svg></g><path d="M309.511 41.215L309.511 0 62.311 0 62.311 247.2 309.511 247.2 309.511 205.985 295.735 205.985 295.735 233.423 76.088 233.423 76.088 13.777 295.735 13.777 295.735 41.215Z" fill="#ffffff" stroke="transparent" data-fill-palette-color="tertiary"></path></svg></g><defs></defs></svg><rect width="395.52" height="247.2" fill="none" stroke="none" visibility="hidden"></rect></g></svg></g></svg>